<svg width="211" height="45" viewBox="0 0 211 45" fill="none" xmlns="http://www.w3.org/2000/svg">
<g clip-path="url(#clip0)">
<path d="M137.496 23.8013C137.286 23.9793 137.159 24.224 137.159 24.5354C137.159 25.136 138.191 25.4252 139.327 25.7366C141.452 26.3149 143.746 26.9378 143.746 30.0075C143.746 31.2976 143.22 32.3876 142.273 33.1661C141.431 33.878 140.253 34.3006 138.864 34.3006C137.643 34.3006 136.591 33.9892 135.771 33.4776C134.845 32.9215 134.192 32.0762 133.835 31.1197C133.624 30.6303 133.792 30.052 134.234 29.785L135.16 29.2067C135.223 29.1844 135.287 29.1399 135.35 29.1177C135.876 28.9397 136.423 29.2289 136.591 29.785C136.717 30.1632 136.97 30.4746 137.307 30.697C137.707 30.9417 138.212 31.0752 138.843 31.0752C139.453 31.0752 139.979 30.9417 140.316 30.6748C140.526 30.5191 140.653 30.2744 140.653 29.963C140.653 29.3179 139.579 29.0287 138.443 28.7173C136.339 28.139 134.066 27.5161 134.066 24.5132C134.066 23.2675 134.571 22.1553 135.476 21.3767C136.297 20.6649 137.412 20.22 138.759 20.22C139.811 20.22 140.737 20.487 141.515 20.9763C142.336 21.4879 142.946 22.222 143.346 23.1118C143.578 23.6011 143.409 24.2017 142.946 24.4687L142.041 25.0248L141.915 25.0915C141.41 25.3139 140.842 25.047 140.632 24.5132C140.505 24.1795 140.274 23.9126 140 23.7346C139.664 23.5122 139.222 23.4232 138.759 23.4232C138.275 23.4009 137.812 23.5344 137.496 23.8013ZM123.292 29.9852C123.944 30.6748 124.849 31.0974 125.859 31.0974C126.869 31.0974 127.774 30.6748 128.405 29.9852C129.058 29.2957 129.437 28.3392 129.437 27.2492C129.437 26.1592 129.037 25.2027 128.405 24.5132C127.774 23.8236 126.869 23.4009 125.859 23.4009C124.849 23.4009 123.944 23.8236 123.292 24.5132C122.64 25.2027 122.24 26.1592 122.24 27.2492C122.24 28.3392 122.64 29.2957 123.292 29.9852ZM128.995 21.1098C129.163 21.1988 129.31 21.31 129.458 21.4212C129.5 20.8874 129.921 20.4647 130.447 20.4647H131.562C132.109 20.4647 132.551 20.9318 132.551 21.5102V32.9882C132.551 33.5665 132.109 34.0337 131.562 34.0337H130.447C129.921 34.0337 129.5 33.611 129.458 33.0772C129.31 33.1884 129.142 33.2996 128.995 33.3886C128.069 33.9669 126.975 34.2784 125.775 34.2784C123.944 34.2784 122.282 33.4998 121.082 32.2096C119.904 30.9417 119.167 29.2067 119.167 27.2269C119.167 25.2472 119.904 23.5122 121.082 22.2442C122.282 20.9541 123.944 20.1755 125.775 20.1755C126.975 20.22 128.048 20.5314 128.995 21.1098ZM115.169 20.4647C115.569 20.4647 115.906 20.7094 116.074 21.0653C116.916 20.5092 117.863 20.309 118.81 20.309C119.357 20.309 119.799 20.7761 119.799 21.3545V22.4667C119.799 23.045 119.357 23.5122 118.81 23.5122C118.073 23.5122 117.358 23.7569 116.874 24.313C116.453 24.8023 116.179 25.5586 116.179 26.6264V33.0104C116.179 33.5888 115.737 34.0559 115.19 34.0559H114.096C113.549 34.0559 113.107 33.5888 113.107 33.0104V21.5102C113.107 20.9318 113.549 20.4647 114.096 20.4647H115.169ZM102.649 29.9852C103.301 30.6748 104.206 31.0974 105.216 31.0974C106.226 31.0974 107.131 30.6748 107.783 29.9852C108.435 29.2957 108.835 28.3392 108.835 27.2492C108.835 26.1592 108.435 25.2027 107.783 24.5132C107.131 23.8236 106.226 23.4009 105.216 23.4009C104.206 23.4009 103.301 23.8236 102.649 24.5132C101.996 25.2027 101.596 26.1592 101.596 27.2492C101.596 28.3392 101.996 29.2957 102.649 29.9852ZM102.038 21.132C102.964 20.5537 104.08 20.22 105.279 20.22C107.11 20.22 108.772 20.9986 109.972 22.2665C111.15 23.5344 111.887 25.2695 111.887 27.2492C111.887 29.2289 111.15 30.964 109.972 32.2319C108.772 33.5221 107.11 34.2784 105.279 34.2784C104.058 34.2784 102.964 33.9447 102.038 33.3663C101.891 33.2774 101.744 33.1661 101.596 33.0772V37.5927C101.596 38.1711 101.155 38.6382 100.607 38.6382H99.5342C98.9871 38.6382 98.5452 38.1711 98.5452 37.5927V21.5102C98.5452 20.9318 98.9871 20.4647 99.5342 20.4647H100.628C101.155 20.4647 101.575 20.8874 101.617 21.4212C101.744 21.3322 101.891 21.221 102.038 21.132ZM89.3072 20.9763C90.1068 20.4647 91.0327 20.1978 91.9586 20.1978C93.4106 20.1978 94.6732 20.7316 95.5781 21.7326C96.4198 22.6669 96.9038 24.0238 96.9038 25.6921V32.9659C96.9038 33.5443 96.4619 34.0114 95.9148 34.0114H94.8205C94.2734 34.0114 93.8315 33.5443 93.8315 32.9659V25.6921C93.8315 24.9136 93.6421 24.313 93.3264 23.9348C93.0108 23.5567 92.5268 23.3787 91.9376 23.3787C91.2642 23.3787 90.675 23.6234 90.2962 24.1128C89.8964 24.6244 89.6649 25.4252 89.6649 26.5596V32.9659C89.6649 33.5443 89.223 34.0114 88.6759 34.0114H87.5817C87.0345 34.0114 86.5926 33.5443 86.5926 32.9659V25.6921C86.5926 24.8913 86.4243 24.2907 86.1086 23.9126C85.814 23.5567 85.3721 23.3787 84.804 23.3787C84.1306 23.3787 83.4993 23.6234 83.0784 24.1572C82.6786 24.6689 82.4261 25.4474 82.4261 26.5596V32.9659C82.4261 33.5443 81.9842 34.0114 81.437 34.0114H80.3428C79.7957 34.0114 79.3538 33.5443 79.3538 32.9659V21.5102C79.3538 20.9318 79.7957 20.4647 80.3428 20.4647H81.437C81.7948 20.4647 82.1315 20.6649 82.2998 20.9763L82.384 20.9318C83.1626 20.4425 84.0464 20.1978 84.9513 20.1978C85.9403 20.1978 86.8451 20.4647 87.5817 20.9763C87.8763 21.1765 88.1709 21.4435 88.4023 21.7326C88.6759 21.4435 88.9915 21.1988 89.3072 20.9763ZM68.9584 29.9852C69.6108 30.6748 70.5156 31.0974 71.5257 31.0974C72.5358 31.0974 73.4406 30.6748 74.0719 29.9852C74.7243 29.2957 75.103 28.3392 75.103 27.2492C75.103 26.1592 74.7032 25.2027 74.0719 24.5132C73.4406 23.8236 72.5358 23.4009 71.5257 23.4009C70.5156 23.4009 69.6108 23.8236 68.9584 24.5132C68.3061 25.2027 67.9063 26.1592 67.9063 27.2492C67.9063 28.3392 68.3061 29.2957 68.9584 29.9852ZM76.2604 32.2319C75.0399 33.4998 73.3775 34.2784 71.5257 34.2784C69.6739 34.2784 67.9904 33.4998 66.7699 32.2319C65.5705 30.964 64.834 29.2289 64.834 27.2492C64.834 25.2695 65.5705 23.5122 66.7699 22.2665C67.9904 20.9986 69.6739 20.22 71.5257 20.22C73.3775 20.22 75.061 20.9986 76.2604 22.2665C77.4599 23.5344 78.1964 25.2695 78.1964 27.2492C78.1964 29.2289 77.4599 30.9862 76.2604 32.2319ZM61.3829 33.0994C60.1203 33.8557 58.6262 34.3006 57.048 34.3006C54.5018 34.3006 52.2922 33.2774 50.714 31.6313C49.0937 29.9407 48.1467 27.5829 48.1467 24.958C48.1467 22.3555 49.0937 19.9976 50.714 18.2848C52.2922 16.6387 54.4807 15.6155 57.048 15.6155C58.6052 15.6155 60.0782 16.0381 61.3408 16.7722C62.6034 17.5285 63.6766 18.6184 64.3921 19.9309L64.4342 19.9753C64.7077 20.487 64.5394 21.1098 64.0764 21.399L63.0453 22.0218L63.0243 22.044C62.5403 22.311 61.9511 22.133 61.6985 21.6214C61.2777 20.7984 60.6253 20.1088 59.8257 19.6194C59.0261 19.1301 58.0791 18.8631 57.069 18.8631C55.3856 18.8631 53.9546 19.5082 52.9446 20.5759C51.9135 21.6659 51.3032 23.223 51.3032 24.9358C51.3032 26.6708 51.9135 28.2057 52.9446 29.2957C53.9546 30.3634 55.3645 31.0085 57.069 31.0085C58.1002 31.0085 59.0471 30.7193 59.8467 30.2299C60.6464 29.7405 61.3198 29.0287 61.7406 28.1834L61.7617 28.139C62.0352 27.6496 62.6244 27.4716 63.1084 27.7608L64.1185 28.3836C64.5815 28.6728 64.7498 29.2957 64.4973 29.785C63.7608 31.1864 62.6876 32.3209 61.3829 33.0994Z" fill="#333333"/>
<path fill-rule="evenodd" clip-rule="evenodd" d="M24.7047 14.3252L38.0671 22.4888C38.2565 22.6 38.4459 22.7557 38.6142 22.9114C38.7826 23.0671 38.9299 23.2451 39.0772 23.4231C39.2034 23.601 39.3297 23.8012 39.4349 24.0236C39.5401 24.2461 39.6033 24.4685 39.6664 24.691C39.7295 24.9134 39.7506 25.1581 39.7716 25.3805C39.7927 25.603 39.7716 25.8477 39.7506 26.0924C39.7295 26.3148 39.6664 26.5595 39.6033 26.7819C39.5401 27.0044 39.4349 27.2046 39.3297 27.427L35.3525 34.6341C35.2473 34.8343 35.1211 35.0345 34.9738 35.2125C34.8265 35.3904 34.6581 35.5461 34.4898 35.7018C34.3214 35.8353 34.132 35.9688 33.9216 36.08C33.7112 36.1912 33.5007 36.2802 33.2903 36.3247C33.0799 36.3914 32.8484 36.4137 32.638 36.4359C32.4275 36.4581 32.1961 36.4359 31.9646 36.4137C31.7542 36.3914 31.5227 36.3247 31.3123 36.2579C31.1018 36.1912 30.9124 36.08 30.702 35.9688L27.756 34.167C25.8831 37.6148 23.9682 41.5521 21.8849 44.822C21.8218 44.9332 21.6955 44.9999 21.5693 44.9999H21.2536C19.8437 44.9999 18.4549 44.8442 17.1081 44.5773C15.7403 44.2881 14.3935 43.8655 13.1309 43.3094C11.8263 42.731 10.6058 42.0414 9.44839 41.2184C8.29101 40.3954 7.19677 39.4611 6.22878 38.4156C5.23975 37.3702 4.35594 36.2357 3.57734 35.0123C2.79874 33.7888 2.1464 32.4987 1.59928 31.1195C1.0732 29.7849 0.673382 28.3613 0.39982 26.9154C0.126259 25.4918 0 24.0236 0 22.5333C0 21.0429 0.147302 19.5748 0.39982 18.1512C0.673382 16.7053 1.0732 15.2817 1.59928 13.947C2.1464 12.5679 2.79874 11.2777 3.57734 10.0543C4.35594 8.83086 5.23975 7.67416 6.22878 6.65093C7.21781 5.60545 8.29101 4.6712 9.44839 3.84816C10.6058 3.02513 11.8263 2.33556 13.1309 1.75721C14.3935 1.2011 15.7403 0.778465 17.1081 0.48929C18.4549 0.200116 19.8437 0.0666504 21.2536 0.0666504C22.5583 0.0666504 23.8419 0.200116 25.0835 0.444802C26.3671 0.689488 27.6087 1.06764 28.7871 1.53477C29.9865 2.02414 31.1439 2.62473 32.2592 3.3143C33.3534 4.02612 34.4056 4.82691 35.3736 5.73892C36.3416 6.65093 37.2254 7.62968 38.025 8.71964C38.8247 9.78736 39.5191 10.9218 40.1083 12.1452C40.6975 13.3464 41.2026 14.5921 41.5813 15.9045C41.9601 17.1947 42.2337 18.5293 42.381 19.8862L42.4651 20.5313C42.4862 20.7537 42.3389 20.9317 42.1495 20.9762L38.972 21.3766C38.7615 21.3988 38.5932 21.2431 38.5511 21.0429L38.4669 20.3978C38.3407 19.2856 38.1092 18.1957 37.8146 17.1502C37.499 16.0825 37.0991 15.0592 36.6151 14.1027C36.1311 13.124 35.563 12.1897 34.9106 11.3222C34.2583 10.4547 33.5428 9.63165 32.7642 8.89759C31.9856 8.16354 31.1439 7.49621 30.2391 6.94011C29.3552 6.36176 28.4083 5.87238 27.4193 5.49423C26.4513 5.11608 25.4412 4.80466 24.4101 4.60447C23.4 4.40427 22.3479 4.31529 21.2747 4.31529C20.1173 4.31529 18.981 4.42651 17.8867 4.6712C16.7714 4.76017 15.6772 5.11608 14.6461 5.56097C13.5939 6.02809 12.5838 6.5842 11.6579 7.25152C10.711 7.91885 9.82717 8.6974 9.02753 9.54268C8.22788 10.388 7.49137 11.3222 6.86008 12.3232C6.22878 13.3242 5.7027 14.3697 5.2608 15.4819C4.83993 16.5718 4.50324 17.7285 4.27177 18.9075C4.06133 20.0642 3.93508 21.2654 3.93508 22.4888C3.93508 23.7122 4.04029 24.9134 4.27177 26.0701C4.50324 27.2713 4.81889 28.4058 5.2608 29.4957C5.7027 30.6079 6.22878 31.6756 6.86008 32.6544C7.49137 33.6554 8.22788 34.5896 9.02753 35.4349L9.04857 35.4572C9.76404 36.2135 10.5637 36.903 11.3844 37.5259L11.4054 37.5481C12.2261 38.1487 13.1099 38.6826 14.0358 39.1497C14.8986 39.5723 15.8034 39.906 16.7293 40.1729C17.5711 40.4176 18.4338 40.5956 19.3176 40.6845L21.3167 37.0365C22.8319 34.256 24.368 31.4977 25.7989 28.8061C25.9042 28.6282 26.1146 28.5615 26.304 28.6504L32.2382 32.2762L35.8155 25.7364L23.1475 17.9955L19.5702 24.5353L23.3579 26.8487C23.5263 26.9599 23.5894 27.2046 23.4842 27.3825C23.0423 28.2278 22.6425 28.9396 22.2637 29.6292L21.9691 30.163C21.8639 30.341 21.6324 30.4077 21.464 30.2965L17.3396 27.8052C17.1502 27.6939 16.9608 27.5382 16.7925 27.4048C16.6241 27.2491 16.4768 27.0711 16.3295 26.8931C16.2033 26.7152 16.077 26.515 15.9718 26.2926C15.8666 26.0701 15.8034 25.8477 15.7403 25.6252C15.6772 25.4028 15.6561 25.1581 15.6351 24.9357C15.614 24.7132 15.6351 24.4685 15.6561 24.2238V24.2016C15.6772 23.9792 15.7403 23.7567 15.8034 23.5343C15.8666 23.3118 15.9718 23.1116 16.077 22.8892L20.0331 15.6376C20.1383 15.4374 20.2856 15.2372 20.4119 15.0592C20.5592 14.8813 20.7275 14.7256 20.8959 14.5699C21.0642 14.4364 21.2536 14.3029 21.464 14.1917C21.6745 14.0805 21.8849 14.0138 22.0953 13.947C22.3058 13.8803 22.5372 13.858 22.7477 13.8358C22.9581 13.8136 23.1896 13.8358 23.4211 13.858C23.6315 13.8803 23.863 13.947 24.0734 14.0138H24.0944C24.3259 14.1027 24.5153 14.214 24.7047 14.3252Z" fill="#2C5CA6"/>
<path d="M161.001 20.4647H159.907C159.423 20.4647 159.023 20.8873 159.023 21.3989V21.5546C157.971 20.6871 156.624 20.22 155.193 20.22C151.511 20.22 148.628 23.2897 148.628 27.2046C148.628 31.1196 151.511 34.1893 155.193 34.1893C156.624 34.1893 157.95 33.7222 159.002 32.8547C158.855 34.7677 157.613 35.8354 155.551 35.8354C153.826 35.8354 152.668 35.2571 152.142 34.1004C152.037 33.8779 151.848 33.7 151.616 33.611C151.385 33.5442 151.132 33.5665 150.922 33.7L149.954 34.2783C149.554 34.523 149.385 35.0569 149.596 35.5017C150.585 37.5927 152.752 38.7939 155.551 38.7939C159.276 38.7939 161.885 36.1691 161.885 32.4098V21.3989C161.885 20.8873 161.506 20.4647 161.001 20.4647ZM155.278 31.1864C153.173 31.1864 151.511 29.4291 151.511 27.1824C151.511 24.9357 153.173 23.1784 155.278 23.1784C157.382 23.1784 159.044 24.9357 159.044 27.1824C159.023 29.4291 157.382 31.1864 155.278 31.1864Z" fill="#2C5CA6"/>
<path d="M169.397 20.1978C165.673 20.1978 162.748 23.2675 162.748 27.1824C162.748 31.0974 165.673 34.1671 169.397 34.1671C173.122 34.1671 176.026 31.0974 176.026 27.1824C176.026 23.2675 173.122 20.1978 169.397 20.1978ZM169.397 31.1864C167.293 31.1864 165.631 29.4291 165.631 27.1824C165.631 24.9358 167.293 23.1785 169.397 23.1785C171.502 23.1785 173.143 24.9358 173.143 27.1824C173.143 29.4291 171.502 31.1864 169.397 31.1864Z" fill="#2C5CA6"/>
<path d="M187.284 20.8873C187.116 20.6203 186.842 20.4646 186.548 20.4646H185.39C185.033 20.4646 184.717 20.6871 184.57 21.043L181.245 29.3623L177.941 21.0207C177.794 20.6648 177.478 20.4424 177.12 20.4424H175.942C175.647 20.4424 175.374 20.5981 175.205 20.865C175.037 21.132 175.016 21.4656 175.121 21.7548L179.772 33.344C179.919 33.6999 180.235 33.9224 180.592 33.9224H181.939C182.297 33.9224 182.613 33.6999 182.76 33.344L187.389 21.7548C187.474 21.4656 187.453 21.132 187.284 20.8873Z" fill="#2C5CA6"/>
<path d="M187.221 34.1448C188.256 34.1448 189.094 33.2584 189.094 32.165C189.094 31.0717 188.256 30.1853 187.221 30.1853C186.187 30.1853 185.348 31.0717 185.348 32.165C185.348 33.2584 186.187 34.1448 187.221 34.1448Z" fill="#2C5CA6"/>
<path d="M197.048 20.1978C195.617 20.1978 194.292 20.6871 193.218 21.5324V16.7721C193.218 16.2605 192.819 15.8379 192.335 15.8379H191.24C190.756 15.8379 190.356 16.2605 190.356 16.7721V32.9882C190.356 33.4998 190.756 33.9224 191.24 33.9224H192.335C192.819 33.9224 193.218 33.4998 193.218 32.9882V32.8325C194.27 33.7 195.617 34.1671 197.048 34.1671C200.731 34.1671 203.614 31.0974 203.614 27.1824C203.593 23.2675 200.731 20.1978 197.048 20.1978ZM196.985 31.1864C194.881 31.1864 193.218 29.4291 193.218 27.1824C193.218 24.9358 194.881 23.1785 196.985 23.1785C199.089 23.1785 200.752 24.9358 200.752 27.1824C200.731 29.4291 199.089 31.1864 196.985 31.1864Z" fill="#2C5CA6"/>
<path d="M210.116 20.3088C209.022 20.3088 208.075 20.598 207.296 21.1319C207.191 20.7537 206.854 20.4645 206.455 20.4645H205.36C204.876 20.4645 204.477 20.8872 204.477 21.3988V32.988C204.477 33.4996 204.876 33.9223 205.36 33.9223H206.455C206.939 33.9223 207.338 33.4996 207.338 32.988V26.5372C207.338 23.601 209.274 23.2673 210.116 23.2673C210.6 23.2673 211 22.8447 211 22.3331V21.2208C211 20.7092 210.621 20.3088 210.116 20.3088Z" fill="#2C5CA6"/>
<path d="M146.46 34.1448C147.495 34.1448 148.333 33.2584 148.333 32.165C148.333 31.0717 147.495 30.1853 146.46 30.1853C145.426 30.1853 144.588 31.0717 144.588 32.165C144.588 33.2584 145.426 34.1448 146.46 34.1448Z" fill="#333333"/>
</g>
<defs>
<clipPath id="clip0">
<rect width="211" height="45" fill="white"/>
</clipPath>
</defs>
</svg>