<svg xmlns="http://www.w3.org/2000/svg" version="1.1" xmlns:xlink="http://www.w3.org/1999/xlink" width="512" height="512" x="0" y="0" viewBox="0 0 512 512" style="enable-background:new 0 0 512 512" xml:space="preserve" class=""><g><path d="M256 53.761C144.484 53.761 53.761 144.485 53.761 256c0 67.81 33.548 127.928 84.916 164.638v-44.682c0-37.685 30.55-68.234 68.235-68.234h98.177c37.685 0 68.235 30.55 68.235 68.234v44.682C424.693 383.927 458.24 323.81 458.24 256 458.239 144.485 367.516 53.761 256 53.761zm0 211.989c-38.607 0-70.019-31.41-70.019-70.019 0-38.607 31.41-70.017 70.019-70.017s70.019 31.41 70.019 70.017c0 38.609-31.412 70.019-70.019 70.019z" fill="#00ffff" opacity="1" data-original="#000000" class=""></path><path d="M256 0C114.614 0 0 114.614 0 256s114.614 256 256 256 256-114.614 256-256S397.384 0 256 0zm0 484.243c-125.853 0-228.243-102.39-228.243-228.243S130.147 27.757 256 27.757 484.243 130.147 484.243 256 381.853 484.243 256 484.243z" fill="#00ffff" opacity="1" data-original="#000000" class=""></path></g></svg>