<svg xmlns="http://www.w3.org/2000/svg" version="1.1" xmlns:xlink="http://www.w3.org/1999/xlink" width="512" height="512" x="0" y="0" viewBox="0 0 500 500" style="enable-background:new 0 0 512 512" xml:space="preserve" class=""><g><path fill-rule="evenodd" d="M256.97 172.874v50.24c0 .454.319.835.765.915a43.314 43.314 0 0 1 8.744 2.539.92.92 0 0 0 1.106-.317l71.057-98.684a.917.917 0 0 0-.012-1.1c-12.356-16.467-.623-40.373 20.243-40.373 22.425 0 33.74 27.243 17.861 43.122-6.702 6.702-16.668 9.143-25.78 6.133a.918.918 0 0 0-1.046.339l-70.521 97.94a.926.926 0 0 0 .125 1.227 43.797 43.797 0 0 1 6.913 8.128.917.917 0 0 0 1.057.374l48.418-15.36a.927.927 0 0 0 .621-1.105c-11.065-45.578 23.423-89.963 70.728-89.963 40.189 0 72.772 32.583 72.772 72.772s-32.583 72.771-72.772 72.771c-28.366 0-53.447-16.323-65.438-40.901a.923.923 0 0 0-1.116-.478l-47.555 15.086a.927.927 0 0 0-.625 1.091 43.824 43.824 0 0 1 1.053 11.089.918.918 0 0 0 .648.916l110.248 34.976a.917.917 0 0 0 1.041-.351c8.977-12.746 27.375-14.461 38.517-3.318 15.878 15.878 4.565 43.122-17.861 43.122-13.987 0-25.273-11.353-25.26-25.285a.917.917 0 0 0-.648-.886l-108.799-34.516a.928.928 0 0 0-1.14.531 43.593 43.593 0 0 1-7.261 11.808.92.92 0 0 0-.05 1.149l29.562 41.057a.926.926 0 0 0 1.229.255c28.588-17.007 65.112-12.356 88.601 11.133 28.42 28.42 28.419 74.494 0 102.914-28.42 28.42-74.494 28.419-102.914 0-29.185-29.185-28.247-76.676 1.868-104.716a.925.925 0 0 0 .122-1.223l-29.198-40.551a.926.926 0 0 0-1.204-.27 43.307 43.307 0 0 1-13.333 4.737.923.923 0 0 0-.765.915v110.699c0 .413.257.762.651.885 17.849 5.615 23.742 28.45 10.24 41.952-15.877 15.877-43.122 4.566-43.122-17.862 0-11.163 7.29-20.821 17.641-24.091a.917.917 0 0 0 .649-.886V310.755a.923.923 0 0 0-.765-.915 43.296 43.296 0 0 1-13.333-4.736.926.926 0 0 0-1.204.27l-29.204 40.559a.925.925 0 0 0 .121 1.222c30.027 28.03 30.965 75.478 1.795 104.648-28.42 28.42-74.493 28.42-102.913 0s-28.42-74.493 0-102.913c23.516-23.516 60.089-28.146 88.687-11.081a.927.927 0 0 0 1.23-.254L217 296.507a.92.92 0 0 0-.05-1.149 43.574 43.574 0 0 1-7.261-11.809.926.926 0 0 0-1.14-.531L99.748 317.532a.916.916 0 0 0-.647.888c.057 22.353-27.195 33.811-43.123 17.884-15.876-15.876-4.566-43.122 17.862-43.122 8.437 0 16.026 4.153 20.656 10.719a.916.916 0 0 0 1.04.35l110.248-34.976a.92.92 0 0 0 .648-.916 43.774 43.774 0 0 1 1.053-11.089.927.927 0 0 0-.625-1.091l-47.556-15.086a.923.923 0 0 0-1.115.48c-21.761 44.648-81.391 55.087-116.894 19.585-28.419-28.419-28.42-74.494 0-102.914s74.494-28.419 102.914 0c17.713 17.713 25.342 43.61 19.271 68.649a.928.928 0 0 0 .621 1.105l48.417 15.36a.918.918 0 0 0 1.057-.374 43.765 43.765 0 0 1 6.913-8.128.926.926 0 0 0 .125-1.227l-70.522-97.94a.916.916 0 0 0-1.046-.338c-16.18 5.356-33.178-6.682-33.178-23.995 0-22.426 27.244-33.739 43.122-17.861 8.894 8.894 9.878 22.954 2.38 32.974a.917.917 0 0 0-.01 1.099l71.057 98.684a.92.92 0 0 0 1.106.317 43.324 43.324 0 0 1 8.743-2.539.922.922 0 0 0 .765-.915v-50.24a.927.927 0 0 0-.831-.924c-36.681-3.909-64.97-34.964-64.97-72.357 0-40.189 32.582-72.772 72.771-72.772s72.772 32.583 72.772 72.772c0 37.392-28.289 68.448-64.971 72.357a.925.925 0 0 0-.831.923zm-6.793-106.822c-14.842-.088-22.106 17.758-11.801 28.063 10.324 10.324 28.064 2.979 28.064-11.625-.001-9.012-7.256-16.342-16.263-16.438zm28.435 84.409v-15.132c0-15.723-12.89-28.612-28.613-28.612s-28.612 12.889-28.612 28.612v15.132a.91.91 0 0 0 .484.816c17.485 9.535 38.771 9.534 56.256 0a.907.907 0 0 0 .485-.816zM379.12 261.384c17.486 9.534 38.771 9.535 56.256.001a.908.908 0 0 0 .484-.816v-15.132c0-15.723-12.89-28.612-28.612-28.612-15.723 0-28.613 12.889-28.613 28.612v15.132a.912.912 0 0 0 .485.815zm-314.498 0c17.485 9.534 38.771 9.534 56.256 0a.908.908 0 0 0 .484-.816v-15.132c0-15.723-12.89-28.612-28.613-28.612s-28.612 12.889-28.612 28.612v15.132a.912.912 0 0 0 .485.816zm56.231 190.645c17.485 9.535 38.771 9.535 56.256 0a.908.908 0 0 0 .484-.816v-15.132c0-15.723-12.89-28.612-28.612-28.612-15.723 0-28.613 12.889-28.613 28.612v15.132a.912.912 0 0 0 .485.816zm201.956.061c17.486 9.535 38.77 9.535 56.256 0a.908.908 0 0 0 .484-.816v-15.132c0-15.723-12.889-28.613-28.613-28.613-15.723 0-28.612 12.889-28.612 28.613v15.132a.91.91 0 0 0 .485.816zm84.617-275.931c-14.842-.088-22.106 17.758-11.801 28.063 10.324 10.324 28.064 2.979 28.064-11.625-.001-9.012-7.256-16.342-16.263-16.438zm-314.499 0c-14.842-.088-22.106 17.758-11.802 28.063 10.322 10.322 28.064 2.985 28.064-11.625.001-9.012-7.254-16.342-16.262-16.438zm56.232 190.645c-14.841-.088-22.107 17.757-11.801 28.063 10.324 10.324 28.064 2.979 28.064-11.625-.001-9.012-7.256-16.342-16.263-16.438zm201.955.061c-14.842-.088-22.106 17.759-11.802 28.063 10.324 10.324 28.064 2.979 28.064-11.624.001-9.013-7.255-16.343-16.262-16.439z" clip-rule="evenodd" fill="#ffffff" opacity="1" data-original="#000000" class=""></path></g></svg>