<svg id="Layer_4" enable-background="new 0 0 64 64" viewBox="0 0 64 64" xmlns="http://www.w3.org/2000/svg"><g><path d="m45 33c-1.09998 0-2 .89996-2 2 0 1.09998.90002 2 2 2s2-.90002 2-2c0-1.10004-.90002-2-2-2zm0 0c-1.09998 0-2 .89996-2 2 0 1.09998.90002 2 2 2s2-.90002 2-2c0-1.10004-.90002-2-2-2zm0 0c-1.09998 0-2 .89996-2 2 0 1.09998.90002 2 2 2s2-.90002 2-2c0-1.10004-.90002-2-2-2zm0 0c-1.09998 0-2 .89996-2 2 0 1.09998.90002 2 2 2s2-.90002 2-2c0-1.10004-.90002-2-2-2zm0 0c-1.09998 0-2 .89996-2 2 0 1.09998.90002 2 2 2s2-.90002 2-2c0-1.10004-.90002-2-2-2zm0 0c-1.09998 0-2 .89996-2 2 0 1.09998.90002 2 2 2s2-.90002 2-2c0-1.10004-.90002-2-2-2zm-34-18v27c0 .54999.45001 1 1 1h14v4h-1c-.38 0-.72998.20996-.89001.54999l-4 8c-.25.5-.04999 1.09998.44 1.34003.5.25 1.10004.04999 1.34003-.44l3.72998-7.45002h5.38v7c0 .54999.45001 1 1 1s1-.45001 1-1v-7h5.38l3.72998 7.45001c.17005.34998.52002.54999.89002.54999.15002 0 .29999-.03003.45001-.10999.48999-.24005.69-.84003.44-1.34003l-4-8c-.16003-.34002-.51001-.54998-.89001-.54998h-1v-4h14c.54999 0 1-.45001 1-1v-27zm25 6c0-.54999.45001-1 1-1s1 .45001 1 1v3c0 .54999-.45001 1-1 1s-1-.45001-1-1zm0 7c0-.54999.45001-1 1-1s1 .45001 1 1v3c0 .54999-.45001 1-1 1s-1-.45001-1-1zm-14.28998 9.28998c.38995.39001.38995 1.03003 0 1.41998-.20001.19-.45001.29004-.71002.29004s-.51001-.10004-.71002-.29004l-1.78998-1.79999-1.78998 1.79999c-.20001.19-.45001.29004-.71002.29004s-.51001-.10004-.71002-.29004c-.38995-.38995-.38995-1.02997 0-1.41998l1.80005-1.78998-1.80005-1.79004c-.38995-.38995-.38995-1.02997 0-1.41998.39001-.39001 1.03003-.39001 1.42004 0l1.78998 1.79999 1.78998-1.79999c.39001-.39001 1.03003-.39001 1.42004 0 .38995.39001.38995 1.03003 0 1.41998l-1.80005 1.79004zm5.28998-1.28998c-.54999 0-1-.45001-1-1v-3c0-.54999.45001-1 1-1s1 .45001 1 1v3c0 .54999-.45001 1-1 1zm-1-8v-3c0-.54999.45001-1 1-1s1 .45001 1 1v3c0 .54999-.45001 1-1 1s-1-.45001-1-1zm5 19h-3v-4h3zm5 0h-3v-4h3zm9-8c-1.85999 0-3.40997-1.28003-3.85999-3h-9.14001c-.54999 0-1-.45001-1-1v-13h-12.59003l1.30005 1.28998c.38995.39001.38995 1.03003 0 1.41998-.20001.19-.45001.29004-.71002.29004s-.51001-.10004-.71002-.29004l-3-3c-.00995-.00995-.00995-.01996-.01996-.02997-.08002-.09002-.15002-.17999-.19-.29999-.01001-.01001-.01001-.02002-.01001-.03003-.03998-.09998-.06-.20996-.06-.31v-.09997c.01001-.09003.02002-.17004.04999-.25.01001-.04004.02002-.07001.03998-.10004.04004-.10999.11005-.20996.19-.29999l3-3c.39001-.39001 1.03003-.39001 1.42004 0 .38995.39001.38995 1.03003 0 1.41998l-1.30005 1.29005h13.59003c.54999 0 1 .45001 1 1v13h8.14001c.45001-1.72003 2-3 3.85999-3 2.21002 0 4 1.78998 4 4 0 2.20996-1.78998 4-4 4zm3.71002-16.71002c.38995.39001.38995 1.03003 0 1.41998-.20001.19-.45001.29004-.71002.29004s-.51001-.10004-.71002-.29004l-1.78998-1.79999-1.78998 1.79999c-.20001.19-.45001.29004-.71002.29004s-.51001-.10004-.71002-.29004c-.38995-.38995-.38995-1.02997 0-1.41998l1.80005-1.78998-1.80005-1.79004c-.38995-.38995-.38995-1.02997 0-1.41998.39001-.39001 1.03003-.39001 1.42004 0l1.78998 1.79999 1.78998-1.79999c.39001-.39001 1.03003-.39001 1.42004 0 .38995.39001.38995 1.03003 0 1.41998l-1.80005 1.79004zm-3.71002 10.71002c-1.09998 0-2 .89996-2 2 0 1.09998.90002 2 2 2s2-.90002 2-2c0-1.10004-.90002-2-2-2zm0 0c-1.09998 0-2 .89996-2 2 0 1.09998.90002 2 2 2s2-.90002 2-2c0-1.10004-.90002-2-2-2zm0 0c-1.09998 0-2 .89996-2 2 0 1.09998.90002 2 2 2s2-.90002 2-2c0-1.10004-.90002-2-2-2zm0 0c-1.09998 0-2 .89996-2 2 0 1.09998.90002 2 2 2s2-.90002 2-2c0-1.10004-.90002-2-2-2zm0 0c-1.09998 0-2 .89996-2 2 0 1.09998.90002 2 2 2s2-.90002 2-2c0-1.10004-.90002-2-2-2zm0 0c-1.09998 0-2 .89996-2 2 0 1.09998.90002 2 2 2s2-.90002 2-2c0-1.10004-.90002-2-2-2zm0 0c-1.09998 0-2 .89996-2 2 0 1.09998.90002 2 2 2s2-.90002 2-2c0-1.10004-.90002-2-2-2z"/><path d="m54 7h-44c-1.65002 0-3 1.34998-3 3v2c0 .34998.06.69.17999 1h49.64001c.12-.31.18-.65002.18-1v-2c0-1.65002-1.34998-3-3-3zm-13 4h-6c-.54999 0-1-.45001-1-1s.45001-1 1-1h6c.54999 0 1 .45001 1 1s-.45001 1-1 1zm11 0h-6c-.54999 0-1-.45001-1-1s.45001-1 1-1h6c.54999 0 1 .45001 1 1s-.45001 1-1 1z"/></g></svg>