<svg id="Layer_4" enable-background="new 0 0 64 64" viewBox="0 0 64 64" xmlns="http://www.w3.org/2000/svg"><g><path d="m11 42c0 .54999.45001 1 1 1h14v4h-1c-.38 0-.72998.20996-.89001.54999l-4 8c-.25.5-.04999 1.09998.44 1.34003.5.25 1.10004.04999 1.34003-.44l3.72998-7.45002h5.38v7c0 .54999.45001 1 1 1s1-.45001 1-1v-7h5.38l3.72998 7.45001c.17005.34998.52002.54999.89002.54999.15002 0 .29999-.03003.45001-.10999.48999-.24005.69-.84003.44-1.34003l-4-8c-.16003-.34002-.51001-.54998-.89001-.54998h-1v-4h14c.54999 0 1-.45001 1-1v-27h-42zm20 5h-3v-4h3zm5 0h-3v-4h3zm10-11h-2c-.54999 0-1-.45001-1-1s.45001-1 1-1h2c.54999 0 1 .45001 1 1s-.45001 1-1 1zm0-8h-8c-.54999 0-1-.45001-1-1s.45001-1 1-1h8c.54999 0 1 .45001 1 1s-.45001 1-1 1zm-2-9h2c.54999 0 1 .45001 1 1s-.45001 1-1 1h-2c-.54999 0-1-.45001-1-1s.45001-1 1-1zm-16 0h12c.54999 0 1 .45001 1 1s-.45001 1-1 1h-12c-.54999 0-1-.45001-1-1s.45001-1 1-1zm7 8c0 .54999-.45001 1-1 1s-1-.45001-1-1 .45001-1 1-1 1 .45001 1 1zm-7-1h2c.54999 0 1 .45001 1 1s-.45001 1-1 1h-2c-.54999 0-1-.45001-1-1s.45001-1 1-1zm0 8h12c.54999 0 1 .45001 1 1s-.45001 1-1 1h-12c-.54999 0-1-.45001-1-1s.45001-1 1-1zm-12.71002-14.71002c.39001-.39001 1.03003-.39001 1.42004 0l1.28998 1.29999 3.28998-3.29999c.39001-.39001 1.03003-.39001 1.42004 0 .38995.39001.38995 1.03003 0 1.41998l-4 4c-.20001.19-.45001.29004-.71002.29004s-.51001-.10004-.71002-.29004l-2-2c-.38996-.38995-.38996-1.02997 0-1.41998zm0 7c.39001-.39001 1.03003-.39001 1.42004 0l1.28998 1.29999 3.28998-3.29999c.39001-.39001 1.03003-.39001 1.42004 0 .38995.39001.38995 1.03003 0 1.41998l-4 4c-.20001.19-.45001.29004-.71002.29004s-.51001-.10004-.71002-.29004l-2-2c-.38996-.38995-.38996-1.02997 0-1.41998zm0 7.41998c-.38995-.38995-.38995-1.02997 0-1.41998.39001-.39001 1.03003-.39001 1.42004 0l1.78998 1.79999 1.78998-1.79999c.39001-.39001 1.03003-.39001 1.42004 0 .38995.39001.38995 1.03003 0 1.41998l-1.80005 1.79004 1.80005 1.78998c.38995.39001.38995 1.03003 0 1.41998-.20001.19-.45001.29004-.71002.29004s-.51001-.10004-.71002-.29004l-1.78998-1.79999-1.78998 1.79999c-.20001.19-.45001.29004-.71002.29004s-.51001-.10004-.71002-.29004c-.38995-.38995-.38995-1.02997 0-1.41998l1.80005-1.78998z"/><path d="m54 7h-44c-1.65002 0-3 1.34998-3 3v2c0 .34998.06.69.17999 1h49.64001c.12-.31.18-.65002.18-1v-2c0-1.65002-1.34998-3-3-3zm-13 4h-6c-.54999 0-1-.45001-1-1s.45001-1 1-1h6c.54999 0 1 .45001 1 1s-.45001 1-1 1zm11 0h-6c-.54999 0-1-.45001-1-1s.45001-1 1-1h6c.54999 0 1 .45001 1 1s-.45001 1-1 1z"/></g></svg>