<svg xmlns="http://www.w3.org/2000/svg" version="1.1" xmlns:xlink="http://www.w3.org/1999/xlink" width="512" height="512" x="0" y="0" viewBox="0 0 512 512" style="enable-background:new 0 0 512 512" xml:space="preserve" class=""><g><path d="M496 76.45h-37.097V56.324a8 8 0 0 0-8-8c-92.079 0-121.647 8.01-180.555 23.968A6605.736 6605.736 0 0 1 256 76.167a6764.051 6764.051 0 0 1-14.348-3.875c-58.908-15.958-88.476-23.968-180.555-23.968a8 8 0 0 0-8 8V76.45H16a8 8 0 0 0-8 8v345.29a8 8 0 0 0 8 8h197.093v.149c0 14.219 11.568 25.788 25.787 25.788h34.617c14.219 0 25.788-11.568 25.788-25.788v-.149H496a8 8 0 0 0 8-8V84.45a8 8 0 0 0-8-8zM274.531 87.735c57.542-15.588 84.751-22.959 168.371-23.391V382.44c-77.842.659-136.622 11.02-178.902 31.564V90.583c3.62-.976 7.133-1.927 10.531-2.848zM69.097 64.344c83.621.432 110.829 7.803 168.372 23.391 3.403.922 6.907 1.871 10.531 2.848v323.414c-42.279-20.542-101.063-30.897-178.903-31.556zM488 421.739H291.285a8 8 0 0 0-8 8v8.149c0 5.397-4.391 9.788-9.788 9.788H238.88c-5.396 0-9.787-4.391-9.787-9.788v-8.149a8 8 0 0 0-8-8H24V92.45h29.097v297.957a8 8 0 0 0 8 8c86.729 0 149.173 11.711 190.903 35.804a8.002 8.002 0 0 0 8 0c41.729-24.093 104.174-35.804 190.902-35.804a8 8 0 0 0 8-8V92.45H488zM233.663 193.817l-71.114-41.057a8 8 0 0 0-8 0l-71.114 41.057a8 8 0 0 0-4 6.928v82.115a8 8 0 0 0 4 6.928l71.114 41.057a8.002 8.002 0 0 0 8 0l71.114-41.057a8 8 0 0 0 4-6.928v-82.115a8.003 8.003 0 0 0-4-6.928zm-75.114 38.749-9.245-5.338 55.114-31.82 9.245 5.338zm-29.868-17.245 55.114-31.82 4.623 2.669-55.114 31.82zm-8 13.857 4.623 2.669v13.86l-4.623-2.668zm37.868-60.252 9.245 5.338-55.114 31.82-9.246-5.338zm-63.114 45.676 9.246 5.338v27.717a8 8 0 0 0 4 6.928l20.623 11.906a8.002 8.002 0 0 0 8 0 8 8 0 0 0 4-6.928v-18.479l9.246 5.338v63.64l-55.114-31.82v-63.64zm71.114 95.46v-63.64l55.114-31.82v63.64zm182.212-126.498a8 8 0 0 1 8-8h60.769a8 8 0 0 1 0 16h-60.769a8 8 0 0 1-8-8zm0-25.861a8 8 0 0 1 8-8h60.769a8 8 0 0 1 0 16h-60.769a8 8 0 0 1-8-8zm0 71.17a8 8 0 0 1 8-8h60.769a8 8 0 0 1 0 16h-60.769a8 8 0 0 1-8-8zm0 25.861a8 8 0 0 1 8-8h60.769a8 8 0 0 1 0 16h-60.769a8 8 0 0 1-8-8zm0 71.17a8 8 0 0 1 8-8h60.769a8 8 0 0 1 0 16h-60.769a8 8 0 0 1-8-8zm0-25.862a8 8 0 0 1 8-8h60.769a8 8 0 0 1 0 16h-60.769a8 8 0 0 1-8-8zm-52.192-103.307h21.809c8.379 0 15.197-6.817 15.197-15.197v-21.809c0-8.379-6.817-15.196-15.197-15.196h-21.809c-8.379 0-15.197 6.817-15.197 15.196v21.809c0 8.379 6.818 15.197 15.197 15.197zm.803-36.202h20.202v20.202h-20.202zm-.803 107.371h21.809c8.379 0 15.197-6.817 15.197-15.196v-21.809c0-8.379-6.817-15.197-15.197-15.197h-21.809c-8.379 0-15.197 6.817-15.197 15.197v21.809c0 8.379 6.818 15.196 15.197 15.196zm.803-36.202h20.202v20.202h-20.202zm-.803 107.372h21.809c8.379 0 15.197-6.817 15.197-15.196v-21.809c0-8.379-6.817-15.197-15.197-15.197h-21.809c-8.379 0-15.197 6.817-15.197 15.197v21.809c0 8.379 6.818 15.196 15.197 15.196zm.803-36.202h20.202v20.202h-20.202z" fill="#ffffff" opacity="1" data-original="#000000"></path></g></svg>