<svg height="512pt" viewBox="0 0 511 512" width="512pt" xmlns="http://www.w3.org/2000/svg"><path d="m256.5 512-256-256 256-256 70.328125 70.328125-185.636719 185.640625-.03125.03125 185.667969 185.671875zm0 0" fill="#4ed8df"/><path d="m441.460938 512-256-256 .027343-.03125 255.972657-255.96875 70.328124 70.328125-185.640624 185.640625-.027344.03125 185.667968 185.671875zm0 0" fill="#4ed8df"/><g fill="#11a9c6"><path d="m326.828125 441.671875-70.328125 70.328125-256-256 .03125-.03125h140.660156l-.03125.03125zm0 0"/><path d="m185.460938 256 .027343-.03125h140.660157l-.027344.03125 185.667968 185.671875-70.328124 70.328125zm0 0"/></g></svg>